<svg id="Layer_1" data-name="Layer 1" xmlns="http://www.w3.org/2000/svg" viewBox="0 0 15.3806 126.7336"><defs><style>.cls-1{fill:#fff;}.cls-2{fill:#092911;}</style></defs><title>Untitled-2</title><line class="cls-1" x1="1.3333" y1="8.4547" x2="1.3333" y2="119.5866"/><path class="cls-2" d="M10.0137,7.2473v97.4889c0,4.47-.1874,8.9865,0,13.4541.0027.0627,0,.126,0,.1888a1.2507,1.2507,0,0,0,2.5,0V20.89c0-4.47.1875-8.9865,0-13.4542-.0026-.0627,0-.126,0-.1887a1.2507,1.2507,0,0,0-2.5,0Z" transform="translate(-9.9304 1.2075)"/><line class="cls-1" x1="8.0696" y1="1.2075" x2="8.0696" y2="125.5262"/><path class="cls-2" d="M16.75,0V109.0212c0,5.0132-.2016,10.0735,0,15.0838.0029.071,0,.1426,0,.2137a1.2507,1.2507,0,0,0,2.5,0V15.2974c0-5.0131.2016-10.0735,0-15.0838-.0029-.0709,0-.1425,0-.2136a1.2507,1.2507,0,0,0-2.5,0Z" transform="translate(-9.9304 1.2075)"/><line class="cls-1" x1="14.0915" y1="13.2075" x2="14.0915" y2="110.724"/><path class="cls-2" d="M22.772,12v93.5153c0,1.2678-.0879,2.5713,0,3.8369.0037.0542,0,.11,0,.1643a1.2507,1.2507,0,0,0,2.5,0V16.0012c0-1.2678.0878-2.5713,0-3.8369-.0038-.0542,0-.11,0-.1643a1.2507,1.2507,0,0,0-2.5,0Z" transform="translate(-9.9304 1.2075)"/></svg>